<svg xmlns="http://www.w3.org/2000/svg" xmlns:xlink="http://www.w3.org/1999/xlink" viewBox="0,0,256,256" width="64px" height="64px" fill-rule="nonzero"><g fill="#ffffff" fill-rule="nonzero" stroke="none" stroke-width="1" stroke-linecap="butt" stroke-linejoin="miter" stroke-miterlimit="10" stroke-dasharray="" stroke-dashoffset="0" font-family="none" font-weight="none" font-size="none" text-anchor="none" style="mix-blend-mode: normal"><g transform="scale(0.5,0.5)"><path d="M85.56055,17c-15.46397,0 -28,12.53603 -28,28v308.18945h396.88867v-201.10937h-105.93945c-16.79359,-0.01658 -30.40335,-13.62633 -30.41993,-30.41992v-104.66016zM330.08008,25.39063v96.26954c0.01107,10.16845 8.25147,18.40885 18.41992,18.41992h97.36914zM256,142.11914c45.64,0 82.64062,11.63 82.64062,26v46.96094v93.91992c0,14.35 -37.00062,26 -82.64062,26c-45.64,0 -82.64062,-11.63 -82.64062,-26v-140.88086c0,-14.35 37.00062,-26 82.64062,-26zM256,148.14062c-27.50996,-0.05099 -53.01433,3.74589 -66.82608,9.94852c-13.81176,6.20263 -13.81176,13.85933 0,20.06196c13.81176,6.20263 39.31612,9.99951 66.82608,9.94852c42.1134,-0.07806 76.0951,-9.00028 76.0951,-19.9795c0,-10.97921 -33.9817,-19.90143 -76.0951,-19.97949zM179.35938,185v30c0,6.78 27.00062,20 76.64062,20c49.64,0 76.64062,-13.2 76.64062,-20v-30c-16.20999,10 -46.55062,15.09961 -76.64062,15.09961c-30.09,0 -60.43063,-5.09961 -76.64062,-15.09961zM179.35938,232v30c0,6.78 27.00062,20 76.64062,20c49.64,0 76.64062,-13.2 76.64062,-20v-30c-16.20999,9.94 -46.55062,15.06055 -76.64062,15.06055c-30.09,0 -60.43063,-5.13055 -76.64062,-15.06055zM179.35938,278.93945v30c0,6.79 27.00062,20 76.64062,20c49.64,0 76.64062,-13.19 76.64062,-20v-30c-16.20999,9.94 -46.55062,15.06055 -76.64062,15.06055c-30.09,0 -60.43063,-5.12055 -76.64062,-15.06055zM57.56055,365.18945v101.81055c0,15.46397 12.53603,28 28,28h340.88867c15.46397,0 28,-12.53603 28,-28v-101.81055zM181.27539,379.09961c8.0405,-0.17961 15.78358,3.04159 21.32422,8.87109c1.54763,1.53937 2.13714,3.79779 1.53933,5.89718c-0.59781,2.09939 -2.28861,3.70848 -4.41501,4.20166c-2.1264,0.49317 -4.35288,-0.20739 -5.81377,-1.82931c-5.02638,-5.28627 -12.92232,-6.65565 -19.4352,-3.37062c-6.51288,3.28503 -10.10481,10.44877 -8.84123,17.63295c1.26358,7.18418 7.0843,12.69239 14.32721,13.55799h0.17968l2,0.09961h0.33008c15.0318,1.8304 26.01966,15.0784 25.03907,30.18945h0.05078c-0.96366,15.01966 -13.41043,26.71818 -28.46094,26.75c-0.61,0 -1.21031,-0.00055 -1.82031,-0.06055c-9.72216,-0.593 -18.46461,-6.12013 -23.16992,-14.64844c-1.60993,-2.8968 -0.56672,-6.55022 2.33008,-8.16015c2.8968,-1.60993 6.55022,-0.56672 8.16015,2.33008c3.74141,6.76304 11.66771,10.0333 19.0895,7.87603c7.42179,-2.15728 12.36007,-9.16687 11.89322,-16.88171c-0.46685,-7.71485 -6.21434,-14.07781 -13.8421,-15.32439c-0.5255,0.05007 -1.05457,0.05007 -1.58007,0c-0.55212,-0.0494 -1.10025,-0.13619 -1.64063,-0.25977c-14.87503,-1.77877 -25.84295,-14.75603 -25.11785,-29.71948c0.7251,-14.96345 12.89639,-26.81943 27.87371,-27.15161zM254.91992,379.09961c25.21,0 45.73047,22.88 45.73047,51c0.05904,11.43082 -3.47827,22.59074 -10.11133,31.90039l5.46094,5.5c2.34451,2.34182 2.3467,6.14084 0.00488,8.48535c-2.34182,2.34451 -6.14084,2.3467 -8.48535,0.00488l-5.13867,-5.14062c-7.64854,6.56499 -17.38143,10.19787 -27.46094,10.25c-25.21,0 -45.73047,-22.88 -45.73047,-51c0,-28.12 20.52047,-51 45.73047,-51zM318.66602,379.10352c3.24334,0.09507 5.82349,2.75135 5.82421,5.99609v83.21094c0.00598,0.43709 0.3617,0.78846 0.79883,0.78906h27.40039c3.31371,0 6,2.68629 6,6c0,3.31371 -2.68629,6 -6,6h-27.40039c-7.06224,-0.00615 -12.78729,-5.72683 -12.79883,-12.78906v-83.21094c0.00036,-1.62155 0.65704,-3.17391 1.82045,-4.30347c1.16341,-1.12956 2.73448,-1.74013 4.35534,-1.69262zM254.91992,391.09961c-18.6,0 -33.73047,17.49 -33.73047,39c0,21.51 15.13047,39 33.73047,39c6.91702,-0.03131 13.61754,-2.41521 19,-6.75977l-12.44922,-12.44922c-2.34181,-2.34452 -2.33963,-6.14354 0.00489,-8.48535c2.34452,-2.34181 6.14354,-2.33963 8.48535,0.00489l12,12c4.43981,-6.96729 6.77288,-15.0686 6.71875,-23.33008c-0.03,-21.49 -15.15977,-38.98047 -33.75977,-38.98047z"></path></g></g></svg>