<svg xmlns="http://www.w3.org/2000/svg"  viewBox="0 0 50 50" width="50px" height="50px"><path d="M 25.744141 2 C 19.415305 2 14.16221 4.208742 10.552734 8.2304688 C 6.9432589 12.252195 5 18.019973 5 25.015625 C 5 31.983318 6.9536897 37.741001 10.570312 41.761719 C 14.186936 45.782437 19.445762 48 25.775391 48 C 35.954336 48 43.750279 42.012302 44.990234 33.138672 A 1.0001 1.0001 0 0 0 44 32 L 36.330078 32 A 1.0001 1.0001 0 0 0 35.363281 32.748047 C 34.313465 36.789256 30.783166 39 25.775391 39 C 22.358321 39 19.765351 37.761543 17.921875 35.423828 C 16.078399 33.086113 15 29.562646 15 24.984375 C 15 20.421601 16.077929 16.906682 17.917969 14.572266 C 19.758009 12.237849 22.34364 11 25.744141 11 C 30.807696 11 34.435124 13.620529 35.416016 18.208984 A 1.0001 1.0001 0 0 0 36.394531 19 L 44 19 A 1.0001 1.0001 0 0 0 44.994141 17.898438 C 44.045834 8.6357566 35.954551 2 25.744141 2 z M 25.744141 4 C 34.667423 4 41.438129 9.3747204 42.783203 17 L 37.048828 17 C 35.594878 12.054067 31.226891 9 25.744141 9 C 21.837641 9 18.553366 10.535651 16.347656 13.333984 C 14.141946 16.132318 13 20.108149 13 24.984375 C 13 29.875104 14.141538 33.859574 16.351562 36.662109 C 18.561587 39.464645 21.85446 41 25.775391 41 C 31.090534 41 35.385009 38.444323 36.947266 34 L 42.740234 34 C 41.164683 41.219811 34.714103 46 25.775391 46 C 19.906019 46 15.277767 44.006813 12.056641 40.425781 C 8.8355135 36.844749 7 31.610932 7 25.015625 C 7 18.389277 8.8296944 13.14668 12.042969 9.5664062 C 15.256243 5.986133 19.873976 4 25.744141 4 z"/></svg>