<?xml version="1.0"?><svg xmlns="http://www.w3.org/2000/svg"  viewBox="0 0 30 30" width="30px" height="30px">    <path d="M 15.021484 1 A 1.0001 1.0001 0 0 0 14.683594 1.0507812 L 2.6835938 5.0507812 A 1.0005645 1.0005645 0 1 0 3.3164062 6.9492188 L 15 3.0546875 L 26.683594 6.9492188 A 1.0005644 1.0005644 0 1 0 27.316406 5.0507812 L 15.316406 1.0507812 A 1.0001 1.0001 0 0 0 15.021484 1 z M 10 9 C 7.6666667 9 4.6835938 10.050781 4.6835938 10.050781 A 1.0001 1.0001 0 0 0 4 11 L 4 12.277344 C 3.4043659 12.623613 3 13.261054 3 14 L 3 25 C 3 26.105 3.895 27 5 27 L 13.271484 27 A 2 2 0 0 0 15 28 A 2 2 0 0 0 16.730469 27 L 25 27 C 26.105 27 27 26.105 27 25 L 27 14 C 27 13.261054 26.595634 12.623613 26 12.277344 L 26 11 A 1.0001 1.0001 0 0 0 25.316406 10.050781 C 25.316406 10.050781 22.333333 9 20 9 C 17.87377 9 15.456439 9.8020638 15 9.9570312 C 14.543561 9.8020639 12.12623 9 10 9 z M 10 11 C 11.334791 11 13.176436 11.517299 14 11.759766 L 14 23.654297 C 12.99354 23.367829 11.450658 23 10 23 C 8.5280745 23 7.0770403 23.353212 6 23.662109 L 6 11.810547 C 6.6727334 11.608551 8.5766005 11 10 11 z M 20 11 C 21.423399 11 23.327267 11.608551 24 11.810547 L 24 23.662109 C 22.92296 23.353212 21.471926 23 20 23 C 18.549342 23 17.00646 23.367829 16 23.654297 L 16 11.759766 C 16.823564 11.517299 18.665209 11 20 11 z"/></svg>