<svg xmlns="http://www.w3.org/2000/svg" xmlns:xlink="http://www.w3.org/1999/xlink" viewBox="0,0,256,256" width="32px" height="32px" fill-rule="nonzero"><g fill="#ffffff" fill-rule="nonzero" stroke="none" stroke-width="1" stroke-linecap="butt" stroke-linejoin="miter" stroke-miterlimit="10" stroke-dasharray="" stroke-dashoffset="0" font-family="none" font-weight="none" font-size="none" text-anchor="none" style="mix-blend-mode: normal"><g transform="scale(8,8)"><path d="M3,2c-0.55225,0 -1,0.44775 -1,1v3h7l2,-4zM12,2l-2,4h1l2,-4zM14,2l-2,4h18v-3c0,-0.55225 -0.44775,-1 -1,-1zM4,3c0.55231,0 1,0.44769 1,1c0,0.55231 -0.44769,1 -1,1c-0.55225,0 -1,-0.44769 -1,-1c0,-0.55231 0.44775,-1 1,-1zM7,3c0.55231,0 1,0.44769 1,1c0,0.55231 -0.44769,1 -1,1c-0.55225,0 -1,-0.44769 -1,-1c0,-0.55231 0.44775,-1 1,-1zM2,7v22c0,0.55225 0.44775,1 1,1h26c0.55225,0 1,-0.44775 1,-1v-22zM12.54492,8.00195c0.12744,0.0116 0.25146,0.07178 0.33984,0.17773c0.17676,0.2124 0.14746,0.52832 -0.06445,0.70508l-2.53906,2.11523l2.53906,2.11523c0.21192,0.17676 0.24121,0.49268 0.06445,0.70508c-0.09912,0.11865 -0.24121,0.17969 -0.38477,0.17969c-0.11279,0 -0.22656,-0.0376 -0.32031,-0.11523l-3,-2.5c-0.11377,-0.09522 -0.17969,-0.23633 -0.17969,-0.38477c0,-0.14844 0.06592,-0.28955 0.17969,-0.38477l3,-2.5c0.10644,-0.08838 0.23779,-0.12488 0.36523,-0.11328zM19.45508,8.00195c0.12744,-0.0116 0.25879,0.0249 0.36523,0.11328l3,2.5c0.11377,0.09522 0.17969,0.23633 0.17969,0.38477c0,0.14844 -0.06592,0.28955 -0.17969,0.38477l-3,2.5c-0.09375,0.07764 -0.20752,0.11523 -0.32031,0.11523c-0.14355,0 -0.28564,-0.06104 -0.38477,-0.17969c-0.17676,-0.2124 -0.14746,-0.52832 0.06445,-0.70508l2.53906,-2.11523l-2.53906,-2.11523c-0.21191,-0.17676 -0.24121,-0.49268 -0.06445,-0.70508c0.08838,-0.10596 0.2124,-0.16614 0.33984,-0.17773zM17.57227,8.00586c0.06403,0.00906 0.12549,0.0293 0.18359,0.06445c0.2373,0.14209 0.31445,0.45068 0.17188,0.6875l-3,5c-0.09375,0.15625 -0.25781,0.24219 -0.42773,0.24219c-0.0874,0 -0.17725,-0.02393 -0.25781,-0.07227c-0.23682,-0.14209 -0.31397,-0.44873 -0.17188,-0.68555l3,-5c0.10693,-0.17798 0.30988,-0.26352 0.50195,-0.23633zM10.5,16c0.0669,0 0.13379,0.01416 0.19727,0.04102l7,3c0.18359,0.07861 0.30273,0.25879 0.30273,0.45898c0,0.2002 -0.11914,0.38037 -0.30273,0.45898l-2.42773,1.04102l2.42773,1.04102c0.18359,0.07861 0.30273,0.25879 0.30273,0.45898c0,0.2002 -0.11914,0.38037 -0.30273,0.45898l-2.42773,1.04102l2.42773,1.04102c0.18359,0.07861 0.30273,0.25879 0.30273,0.45898c0,0.2002 -0.11914,0.38037 -0.30273,0.45898l-7,3c-0.06348,0.02686 -0.12988,0.04102 -0.19727,0.04102c-0.06738,0 -0.13379,-0.01416 -0.19727,-0.04102l-7,-3c-0.18359,-0.07861 -0.30273,-0.25879 -0.30273,-0.45898c0,-0.2002 0.11914,-0.38037 0.30273,-0.45898l2.42773,-1.04102l-2.42773,-1.04102c-0.18359,-0.07861 -0.30273,-0.25879 -0.30273,-0.45898c0,-0.2002 0.11914,-0.38037 0.30273,-0.45898l2.42773,-1.04102l-2.42773,-1.04102c-0.18359,-0.07861 -0.30273,-0.25879 -0.30273,-0.45898c0,-0.2002 0.11914,-0.38037 0.30273,-0.45898l7,-3c0.06348,-0.02686 0.13037,-0.04102 0.19727,-0.04102zM10.5,17.04297l-5.73047,2.45703l5.73047,2.45703l3.31445,-1.42187h0.00195l2.41406,-1.03516zM24,18c1.6543,0 3,1.3457 3,3c0,1.6543 -1.3457,3 -3,3h2c1.65686,0 3,1.34314 3,3h-10c0,-1.65686 1.34314,-3 3,-3h2c-1.6543,0 -3,-1.3457 -3,-3c0,-1.6543 1.3457,-3 3,-3zM7,21.54492l-2.23047,0.95508l2.41406,1.03516h0.00195l3.31445,1.42188l3.3125,-1.42187c0.00134,-0.00055 0.00256,0.00049 0.00391,0l2.41406,-1.03516l-2.23047,-0.95508l-3.30273,1.41406c-0.06348,0.02686 -0.12988,0.04102 -0.19727,0.04102c-0.06738,0 -0.13379,-0.01416 -0.19727,-0.04102zM7,24.54492l-2.23047,0.95508l5.73047,2.45703l5.73047,-2.45703l-2.23047,-0.95508l-3.30273,1.41406c-0.06348,0.02686 -0.12988,0.04102 -0.19727,0.04102c-0.06738,0 -0.13379,-0.01416 -0.19727,-0.04102z"></path></g></g></svg>