<svg xmlns="http://www.w3.org/2000/svg"  viewBox="0 0 50 50" width="50px" height="50px"><path d="M 5 0 L 5 46 L 30.371094 46 C 29.520094 45.435 28.753172 44.759 28.076172 44 L 7 44 L 7 2 L 25 2 L 25 16 L 39 16 L 39 24.175781 C 39.688 24.294781 40.356 24.469266 41 24.697266 L 41 14.585938 L 26.414062 0 L 5 0 z M 27 3.4140625 L 37.585938 14 L 27 14 L 27 3.4140625 z M 12 6 A 1.0001 1.0001 0 0 0 11 7 L 11 15 A 1.0001 1.0001 0 0 0 12 16 L 20 16 A 1.0001 1.0001 0 0 0 21 15 L 21 7 A 1.0001 1.0001 0 0 0 20 6 L 12 6 z M 13 8 L 19 8 L 19 14 L 13 14 L 13 8 z M 12 20 A 1.0001 1.0001 0 1 0 12 22 L 34 22 A 1.0001 1.0001 0 1 0 34 20 L 12 20 z M 12 26 C 11.448 26 11 26.448 11 27 C 11 27.552 11.448 28 12 28 L 28.074219 28 C 28.753219 27.242 29.520094 26.565 30.371094 26 L 12 26 z M 37 26 C 31.488994 26 27 30.488998 27 36 C 27 41.511002 31.488994 46 37 46 C 39.396509 46 41.597385 45.148986 43.322266 43.736328 L 48.292969 48.707031 L 49.707031 47.292969 L 44.736328 42.322266 C 46.148985 40.597385 47 38.396507 47 36 C 47 30.488998 42.511006 26 37 26 z M 37 28 C 41.430126 28 45 31.569877 45 36 C 45 40.430123 41.430126 44 37 44 C 32.569874 44 29 40.430123 29 36 C 29 31.569877 32.569874 28 37 28 z M 37 31 A 3 3 0 0 0 37 37 A 3 3 0 0 0 37 31 z M 12 32 C 11.448 32 11 32.448 11 33 C 11 33.552 11.448 34 12 34 L 25.179688 34 C 25.295687 33.311 25.470266 32.644 25.697266 32 L 12 32 z M 12 38 C 11.448 38 11 38.448 11 39 C 11 39.552 11.448 40 12 40 L 25.697266 40 C 25.470266 39.356 25.295687 38.689 25.179688 38 L 12 38 z M 34 39 A 1.0001 1.0001 0 1 0 34 41 L 40 41 A 1.0001 1.0001 0 1 0 40 39 L 34 39 z"/></svg>