<svg xmlns="http://www.w3.org/2000/svg" xmlns:xlink="http://www.w3.org/1999/xlink" viewBox="0,0,256,256" width="30px" height="30px" fill-rule="nonzero"><g fill="#ffffff" fill-rule="nonzero" stroke="none" stroke-width="1" stroke-linecap="butt" stroke-linejoin="miter" stroke-miterlimit="10" stroke-dasharray="" stroke-dashoffset="0" font-family="none" font-weight="none" font-size="none" text-anchor="none" style="mix-blend-mode: normal"><g transform="scale(8.53333,8.53333)"><path d="M15.02148,1c-0.11471,-0.00258 -0.22901,0.0146 -0.33789,0.05078l-12,4c-0.33923,0.11296 -0.59241,0.39834 -0.66413,0.74862c-0.07172,0.35028 0.04892,0.71221 0.31647,0.9494c0.26754,0.23719 0.64132,0.31359 0.98048,0.20042l11.68359,-3.89453l11.68359,3.89453c0.33914,0.11311 0.71287,0.03668 0.98037,-0.2005c0.2675,-0.23718 0.38813,-0.59907 0.31644,-0.94932c-0.07169,-0.35025 -0.32482,-0.63563 -0.664,-0.74862l-12,-4c-0.0952,-0.03162 -0.19462,-0.04874 -0.29492,-0.05078zM10,9c-2.33333,0 -5.31641,1.05078 -5.31641,1.05078c-0.40844,0.13626 -0.68382,0.51865 -0.68359,0.94922v1.27734c-0.59563,0.34627 -1,0.98371 -1,1.72266v11c0,1.105 0.895,2 2,2h8.27148c0.35663,0.61771 1.01525,0.99874 1.72852,1c0.71397,-0.00056 1.37349,-0.38169 1.73047,-1h8.26953c1.105,0 2,-0.895 2,-2v-11c0,-0.73895 -0.40437,-1.37639 -1,-1.72266v-1.27734c0.00023,-0.43057 -0.27515,-0.81295 -0.68359,-0.94922c0,0 -2.98307,-1.05078 -5.31641,-1.05078c-2.12623,0 -4.54356,0.80206 -5,0.95703c-0.45644,-0.15497 -2.87377,-0.95703 -5,-0.95703zM10,11c1.33479,0 3.17644,0.5173 4,0.75977v11.89453c-1.00646,-0.28647 -2.54934,-0.6543 -4,-0.6543c-1.47193,0 -2.92296,0.35321 -4,0.66211v-11.85156c0.67273,-0.202 2.5766,-0.81055 4,-0.81055zM20,11c1.4234,0 3.32727,0.60855 4,0.81055v11.85156c-1.07704,-0.3089 -2.52807,-0.66211 -4,-0.66211c-1.45066,0 -2.99354,0.36783 -4,0.6543v-11.89453c0.82356,-0.24247 2.66521,-0.75977 4,-0.75977z"></path></g></g></svg>